<svg id="Layer_1" data-name="Layer 1" xmlns="http://www.w3.org/2000/svg" viewBox="0 0 136.14 136.14"><defs><style>.cls-1{opacity:0.8;}.cls-2{fill:#323333;}.cls-3{fill:#040000;}.cls-4{fill:#555;}</style></defs><title>btmhdw-logo</title><g class="cls-1"><path class="cls-2" d="M712.48,360.64,676.13,324.3l-8.36-8.37,31.42,58,13.29-13.31Zm-58.82,46.69,44.72,44.74L667,394l-13.29,13.29M673,367.88l-13.3-13.31L636,404.92l37-37m33.38,45.53,44.73-44.72-58,31.43,13.29,13.29" transform="translate(-615 -315.93)"/></g><g class="cls-1"><path class="cls-3" d="M662.14,336.91l37.05,37-31.42-58-26.28,26.5,20.65-5.52ZM704,431.09l-37-37,31.43,58,26.25-26.51L704,431.09m-68-26.17,23.75-50.35-36.35,36.37L615,399.3l26.51,26.26L636,404.92m94.2-41.87-37.06,37.07,58-31.43-26.51-26.27,5.55,20.63" transform="translate(-615 -315.93)"/></g><g class="cls-1"><path class="cls-4" d="M626.16,327.07,615,368.69l22.74-12.21ZM740,440.92l11.15-41.62-22.73,12.2L740,440.92m-113.83,0,41.61,11.17-12.2-22.75ZM740,327.07l-41.61-11.14,12.19,22.73L740,327.07Z" transform="translate(-615 -315.93)"/></g><g class="cls-1"><path class="cls-2" d="M641.49,342.43l26.28-26.5-41.61,11.14,11.58,29.41,3.75-14.05Zm83.14,83.13-26.25,26.51L740,440.92,728.41,411.5l-3.78,14.06m-83.12,0L615,399.3l11.16,41.6,29.41-11.58-14.06-3.76Zm83.12-83.14,26.51,26.27L740,327.07l-29.42,11.59,14.06,3.76" transform="translate(-615 -315.93)"/></g><g class="cls-1"><path class="cls-3" d="M637.74,356.48,615,368.69l5.28,5.26,17.46-17.47Zm90.67,55,22.73-12.2L745.87,394,728.41,411.5m-60.64,40.57,5.26-5.28-17.46-17.47,12.2,22.75m30.61-136.14-5.26,5.27,17.45,17.46Z" transform="translate(-615 -315.93)"/></g></svg>